<?xml version="1.0" encoding="utf-8"?>
<!-- Generator: Adobe Illustrator 20.1.0, SVG Export Plug-In . SVG Version: 6.00 Build 0)  -->
<svg version="1.1" id="Capa_1" xmlns="http://www.w3.org/2000/svg" xmlns:xlink="http://www.w3.org/1999/xlink" x="0px" y="0px"
	 viewBox="0 0 303.3 57" style="enable-background:new 0 0 303.3 57;" xml:space="preserve">
<style type="text/css">
	.st0{fill:#FFFFFF;}
	.st1{fill:#00998F;}
</style>
<path class="st0" d="M33.4,39.3c-0.2-5.9-2.9-10.1-8-12.5l-0.6-0.3l0.5-0.3c3.8-2.5,5.7-5.8,5.7-10.3c0-3.7-1.5-6.8-4.6-9.3
	C23.5,4.3,20,3.1,16.1,3.1H2v50.3h15.9c4.2,0,7.8-1.3,11-4.1C32,46.6,33.5,43.2,33.4,39.3z M6.6,7.2H16c2.9,0,5.3,0.7,7.3,2.3
	c2.2,1.6,3.3,3.8,3.3,6.7c0,2.6-1.1,4.7-3.2,6.4c-2.1,1.6-4.5,2.4-7.2,2.4H6.6V7.2z M26.4,45.7c-2.2,2.4-5.8,3.6-10.2,3.6H6.6V28.9
	H16c3.7,0,6.6,0.8,8.9,2.3c2.4,1.7,3.8,4.3,4,7.6C29,41.5,28.1,43.9,26.4,45.7z"/>
<rect x="38.9" y="3.1" class="st0" width="4.3" height="50.4"/>
<path class="st0" d="M54.9,48.4c3.5,3.7,7.9,5.7,13.1,5.9c5.8,0.2,10.8-2,14.8-6.6l0.6-0.7v6.5h4.2V34.8c0.2-5.1-1.6-9.6-5.2-13.4
	s-8-5.8-13.3-6c-0.3,0-0.5,0-0.8,0c-5.1,0-9.5,1.9-13.1,5.5c-3.8,3.8-5.8,8.5-5.8,13.9C49.5,40.1,51.3,44.6,54.9,48.4z M58.3,24
	c2.9-2.9,6.4-4.3,10.5-4.3c4,0,7.4,1.5,10.1,4.3c2.8,2.9,4.3,6.5,4.3,10.4c0.1,4.3-1.4,8-4.4,11.2C76,48.5,72.6,50,68.7,50
	c-0.2,0-0.5,0-0.7,0c-4-0.2-7.4-1.8-10.1-4.8c-2.7-3-4.1-6.6-4-10.7C54,30.3,55.4,26.9,58.3,24z"/>
<path class="st0" d="M93.6,35c0.1,5.4,2.1,9.9,5.9,13.6c3.9,3.7,8.5,5.6,13.9,5.7c8.1,0.1,14.2-3.5,18.1-10.7l0.3-0.6h-5
	c-3,4.6-7.5,7-13.4,7.1c-4.2,0.1-7.8-1.4-10.9-4.4C99.6,42.6,98,39,98,34.8s1.7-7.9,4.9-10.9c3.2-3,6.7-4.4,10.7-4.3
	c5.8,0.1,10.3,2.6,13.2,7.5h5l-0.5-1.2c-1.3-3-3.6-5.4-6.9-7.5c-3.3-2-6.9-3.1-10.6-3.1c-0.1,0-0.2,0-0.3,0
	c-5.4,0.1-10.1,2.1-14.1,5.9C95.4,25.1,93.5,29.6,93.6,35z"/>
<polygon class="st0" points="158.9,53.4 164.5,53.4 149.2,35 163.3,16.4 157.9,16.4 139.9,39.7 139.9,3.1 135.4,3.1 135.4,53.4 
	140.1,53.4 140.1,46.4 146.5,38.4 "/>
<polygon class="st1" points="168.6,2.7 168.6,8.1 180.1,8.1 180.1,54.1 185.8,54.1 185.8,8.1 197.4,8.1 197.4,2.7 "/>
<path class="st1" d="M215.3,15.1c-2-0.1-4,0.4-6,1.4c-1.8,1-3.2,2.2-4.2,3.7v-4.4h-5.4v38.3h6V31.3c0-2.4,0.4-4.3,1.2-5.6
	c0.5-0.9,1.5-1.9,2.9-3c1.4-1.2,3.3-1.8,5.5-1.8h0.3v-5.7L215.3,15.1z"/>
<path class="st1" d="M247.1,15.8v22.4c0,3.1-1.1,5.7-3.4,7.9c-2.3,2.2-4.8,3.3-7.8,3.3s-5.6-1.1-7.9-3.3c-2.2-2.2-3.3-4.8-3.3-7.9
	V15.8h-5.8v21.8c0,5,1.6,9.1,4.8,12.5c3.2,3.3,7.3,5,12.2,5s9-1.7,12.1-5c3.2-3.3,4.8-7.5,4.8-12.5V15.8H247.1z"/>
<path class="st1" d="M282.3,42.5c-0.3-5.1-3.1-8.6-8.3-10.3l-4.4-1.5c-3.2-1.1-4.8-2.9-4.6-5.4c0.1-2.6,2.2-4.8,4.9-4.8
	c2.6,0,5.2,1.5,5.2,4.1v1.2h6l-0.1-1.5c-0.2-2.8-1.4-5-3.8-6.8c-2.3-1.9-4.7-2.7-7.4-2.6c-3,0.1-5.6,1.3-7.8,3.4
	c-2.1,2.1-3.1,4.7-3,7.7c0.2,5,2.7,8.3,7.5,9.8l4.4,1.4c3.6,1.2,5.3,3.2,5.2,6.3c-0.1,1.8-0.6,3.2-1.6,4.3c-1.2,1.2-2.7,1.8-4.8,1.8
	c-1.5,0.1-2.9-0.6-4.2-1.9c-1.3-1.3-2-2.6-2-3.7v-1.6h-5.9v0.3c0,3.3,1.1,6.2,3.3,8.6c2.3,2.4,5,3.7,8.2,3.9c0.3,0,0.5,0,0.8,0
	c3.2,0,6.1-1.2,8.6-3.5C281.3,49.1,282.5,46,282.3,42.5z"/>
<path class="st1" d="M300.9,21.1v-5.4h-8.6V2.6h-5.8v40.3c0,8,4.7,12,14.1,12h0.3v-4.8h-0.3c-5.6,0-8.3-2.6-8.3-8v-21
	C292.3,21.1,300.9,21.1,300.9,21.1z"/>
</svg>
